<?xml version="1.0" standalone="no"?>
<!DOCTYPE svg PUBLIC "-//W3C//DTD SVG 20010904//EN"
 "http://www.w3.org/TR/2001/REC-SVG-20010904/DTD/svg10.dtd">
<svg version="1.0" xmlns="http://www.w3.org/2000/svg"
 width="135.000000pt" height="135.000000pt" viewBox="0 0 135.000000 135.000000"
 preserveAspectRatio="xMidYMid meet">
<metadata>
Created by potrace 1.14, written by Peter Selinger 2001-2017
</metadata>
<g transform="translate(0.000000,135.000000) scale(0.100000,-0.100000)"
fill="#000000" stroke="none">
<path d="M120 1325 c-37 -19 -111 -85 -96 -85 3 0 -1 -12 -9 -26 -8 -17 -13
-68 -14 -150 -2 -106 0 -124 14 -125 71 -3 108 0 114 9 3 5 5 56 5 112 -1 92
1 104 21 128 21 24 26 25 136 26 l114 1 0 65 0 65 -120 1 c-107 2 -125 -1
-165 -21z"/>
<path d="M943 1282 l2 -67 95 -1 c52 -1 103 -2 113 -3 10 -1 29 -12 41 -26 22
-24 24 -34 22 -126 0 -56 2 -106 5 -111 6 -9 60 -13 119 -9 14 1 10 237 -4
271 -19 48 -54 86 -102 112 -45 24 -59 26 -171 26 l-122 1 2 -67z"/>
<path d="M879 912 c-11 -2 -14 -18 -12 -65 3 -106 6 -103 -87 -102 l-80 1 0
-79 0 -79 33 3 c17 1 55 1 83 0 l52 -1 0 -62 c-1 -116 -8 -106 77 -105 l75 0
1 56 c1 31 0 68 -1 84 -1 16 4 27 12 28 7 0 45 0 84 0 l71 0 -1 77 -1 77 -80
0 -80 0 -2 55 c-1 30 -2 69 -2 85 l-1 30 -63 0 c-35 0 -70 -1 -78 -3z"/>
<path d="M428 893 c-49 -56 -13 -136 56 -127 95 12 88 144 -7 144 -20 0 -40
-7 -49 -17z"/>
<path d="M175 715 c-29 -28 -32 -61 -7 -93 40 -52 125 -27 134 38 10 67 -78
105 -127 55z"/>
<path d="M420 543 c-13 -17 -19 -35 -16 -48 3 -11 6 -26 6 -33 0 -7 15 -20 34
-28 29 -14 37 -15 62 -3 39 19 55 53 42 90 -19 56 -92 68 -128 22z"/>
<path d="M16 402 c-16 -4 -18 -16 -14 -136 3 -125 4 -135 31 -175 48 -73 71
-81 233 -81 l140 0 0 58 -1 57 -109 0 c-103 1 -111 3 -137 26 -27 25 -27 28
-26 128 1 57 -1 108 -4 113 -7 10 -79 16 -113 10z"/>
<path d="M1216 290 c2 -102 0 -111 -22 -135 -13 -14 -31 -25 -41 -26 -10 -1
-61 -2 -113 -3 l-95 -1 -2 -57 -3 -58 144 0 c143 0 143 0 184 30 63 46 79 91
80 238 l1 122 -67 0 -67 0 1 -110z"/>
</g>
</svg>
